<svg xmlns="http://www.w3.org/2000/svg" viewBox="0 0 720 720"><defs><linearGradient id="bg" x1="0" y1="0" x2="0.2" y2="1"><stop offset="0" stop-color="#6b5326"/><stop offset="1" stop-color="#1a1408"/></linearGradient></defs>
<rect width="720" height="720" fill="url(#bg)"/>
<g><path d="M120 250 q90 -24 180 0 t180 0 t120 0" fill="none" stroke="#ecc884" stroke-opacity="0.50" stroke-width="2"/><path d="M120 294 q90 -24 180 0 t180 0 t120 0" fill="none" stroke="#ecc884" stroke-opacity="0.45" stroke-width="2"/><path d="M120 338 q90 -24 180 0 t180 0 t120 0" fill="none" stroke="#ecc884" stroke-opacity="0.40" stroke-width="2"/><path d="M120 382 q90 -24 180 0 t180 0 t120 0" fill="none" stroke="#ecc884" stroke-opacity="0.35" stroke-width="2"/><path d="M120 426 q90 -24 180 0 t180 0 t120 0" fill="none" stroke="#ecc884" stroke-opacity="0.30" stroke-width="2"/><path d="M120 470 q90 -24 180 0 t180 0 t120 0" fill="none" stroke="#ecc884" stroke-opacity="0.25" stroke-width="2"/></g>
<rect x="34" y="34" width="652" height="652" fill="none" stroke="#fff" stroke-opacity="0.14" stroke-width="1.5"/>
<rect width="720" height="720" fill="url(#vg)" />
<defs><radialGradient id="vg" cx="50%" cy="45%" r="75%"><stop offset="0.5" stop-color="#000" stop-opacity="0"/><stop offset="1" stop-color="#000" stop-opacity="0.42"/></radialGradient>
<filter id="gr"><feTurbulence type="fractalNoise" baseFrequency="0.9" numOctaves="2"/><feColorMatrix type="saturate" values="0"/></filter></defs>
<rect width="720" height="720" filter="url(#gr)" opacity="0.06"/>
</svg>